<?xml version="1.0" encoding="utf-8"?>
<!-- Generator: Adobe Illustrator 24.0.1, SVG Export Plug-In . SVG Version: 6.00 Build 0)  -->
<svg version="1.1" id="Layer_1" xmlns="http://www.w3.org/2000/svg" xmlns:xlink="http://www.w3.org/1999/xlink" x="0px" y="0px"
	 viewBox="0 0 106 40" style="enable-background:new 0 0 106 40;" xml:space="preserve">
<style type="text/css">
	.st0{fill:#2050E0;}
	.st1{fill:#F8D12E;}
	.st2{fill:#FFFFFF;}
	.st3{fill:#FFFFFF;}
	.st4{font-family:'HelveticaNeue-Bold';}
	.st5{font-size:8px;}
</style>
<g id="GDPR_compliant_-_GDPR_Copy_13">
	<g id="Rectangle_" fill="#FFFFFF">
		<path d="M100,1c2.8,0,5,2.2,5,5v28c0,2.8-2.2,5-5,5H6c-2.8,0-5-2.2-5-5V6c0-2.8,2.2-5,5-5H100 M100,0H6C2.7,0,0,2.7,0,6v28
			c0,3.3,2.7,6,6,6h94c3.3,0,6-2.7,6-6V6C106,2.7,103.3,0,100,0L100,0z"/>
	</g>
	<g id="Rectangle_2">
		<g>
			<path class="st0" d="M6.1,39.5c-3,0-5.5-2.5-5.5-5.5V6c0-3,2.5-5.5,5.5-5.5h33.5v39H6.1z"/>
		</g>
		<path class="st0" d="M10.6-5.5"/>
	</g>
	<g id="Group" transform="translate(6 6)">
		<path id="Shape" class="st1" d="M14,0l0.5,1.5H16l-1.2,0.9l0.5,1.5l-1.3-1l-1.2,0.9l0.5-1.5l-1.2-0.9h1.5L14,0z"/>
		<path id="Shape-2" class="st1" d="M14,24.2l0.5,1.5H16l-1.2,0.9l0.5,1.5l-1.3-1L12.8,28l0.5-1.5l-1.2-0.9h1.5L14,24.2z"/>
		<path id="Shape-3" class="st1" d="M20,2.2l0.5,1.5H22l-1.2,0.9L21.2,6L20,5.1L18.9,6l0.5-1.5l-1.2-0.9h1.5L20,2.2z"/>
		<path id="Shape-4" class="st1" d="M24.9,18l0.5,1.5h1.5l-1.2,0.9l0.5,1.5L25,21l-1.2,0.9l0.5-1.5L23,19.5h1.5L24.9,18z"/>
		<path id="Shape-5" class="st1" d="M26.1,12.1l0.5,1.5H28l-1.2,0.9l0.5,1.5l-1.2-1l-1.2,0.9l0.5-1.5l-1.2-0.9h1.5L26.1,12.1z"/>
		<path id="Shape-6" class="st1" d="M1.9,12.1l0.5,1.5h1.5l-1.2,0.9L3.2,16l-1.3-1l-1.2,0.9l0.5-1.5L0,13.5h1.5L1.9,12.1z"/>
		<path id="Shape-7" class="st1" d="M2.9,18l0.5,1.5h1.5l-1.2,0.9l0.5,1.5L3,21l-1.2,0.9l0.5-1.5L1,19.5h1.5L2.9,18z"/>
		<path id="Shape-8" class="st1" d="M24.9,6l0.5,1.5h1.5l-1.2,0.9l0.5,1.5L25,9l-1.2,0.9l0.5-1.5L23,7.5h1.5L24.9,6z"/>
		<path id="Shape-9" class="st1" d="M3.4,6l0.5,1.5h1.5L4.2,8.4l0.5,1.5l-1.3-1L2.2,9.8l0.5-1.5L1.5,7.5H3L3.4,6z"/>
		<path id="Shape-10" class="st1" d="M21.1,23.1l0.5,1.5h1.5l-1.2,0.9l0.5,1.5l-1.3-1l-1.2,0.9l0.5-1.5l-1.2-0.9h1.5L21.1,23.1z"/>
		<path id="Shape-11" class="st1" d="M8,2.2l0.5,1.5H10L8.7,4.6L9.1,6L8,5.1L6.8,6l0.5-1.5L6,3.7h1.5L8,2.2z"/>
		<path id="Shape-12" class="st1" d="M6.9,23.1l0.5,1.5h1.5l-1.2,0.9L8.2,27l-1.3-1l-1.2,0.9l0.5-1.5L5,24.5h1.5L6.9,23.1z"/>
	</g>
	<path id="GDPR" class="st2" d="M51.8,20.2c-1.3,0-2.5-0.4-3.4-1.2c-0.9-0.9-1.4-2.1-1.4-3.4s0.5-2.5,1.4-3.4
		c0.9-0.8,2.2-1.3,3.4-1.2c1.6-0.1,3,0.7,3.8,2.1l-1.9,1c-0.4-0.7-1.1-1-1.9-1.1c-0.7,0-1.3,0.3-1.8,0.7c-0.5,0.5-0.7,1.2-0.7,1.8
		c0,0.7,0.2,1.3,0.7,1.8s1.1,0.8,1.8,0.7c0.6,0,1.2-0.2,1.7-0.5v-0.7h-2V15h4.3v3.5C54.8,19.6,53.3,20.2,51.8,20.2z M77.7,20h-2.3
		v-8.9h4.5c1.6-0.1,3,1,3.1,2.6c0,0.1,0,0.2,0,0.3c0.1,1.2-0.7,2.3-1.8,2.7L83,20h-2.6l-1.5-3h-1.2L77.7,20L77.7,20z M77.7,13.1v2
		h1.8c0.6,0,1.1-0.4,1.1-0.9c0,0,0,0,0-0.1c0-0.6-0.5-1-1-1c0,0,0,0-0.1,0H77.7z M69.1,20h-2.3v-8.9h4.5c1.6-0.1,3,1,3.1,2.6
		c0,0.1,0,0.2,0,0.3c0,1.6-1.2,2.9-2.8,2.9c-0.1,0-0.2,0-0.3,0h-2.2C69.1,16.9,69.1,20,69.1,20z M69.1,13.1v2H71
		c0.5,0,1-0.4,1.1-0.9v-0.1c0-0.6-0.4-1-1-1H71H69.1z M60.9,20h-3.8v-8.9h3.7c1.3,0,2.5,0.4,3.5,1.2c0.9,0.8,1.4,2,1.4,3.3
		c0,1.2-0.5,2.4-1.4,3.3C63.4,19.7,62.1,20.1,60.9,20z M59.4,13.1V18h1.4c0.7,0,1.3-0.2,1.8-0.7c0.4-0.5,0.7-1.1,0.6-1.7
		c0.1-1.3-0.8-2.3-2.1-2.4c-0.1,0-0.2,0-0.4,0L59.4,13.1z"/>
	<path id="Shape-13" class="st3" d="M23.1,24.5h-6.3c-0.5,0-0.9-0.4-0.9-0.9V20c0-0.5,0.4-0.9,0.9-0.9h0.4v-1.3
		c0-1.5,1.2-2.8,2.7-2.8s2.7,1.3,2.7,2.8v1.3H23c0.5,0,0.9,0.4,0.9,0.9v3.5C24,24,23.6,24.4,23.1,24.5z M20,16.5
		c-0.7,0-1.3,0.6-1.3,1.3v1.3h2.6v-1.3C21.3,17.1,20.7,16.5,20,16.5z"/>
	<text transform="matrix(1 0 0 1 47 31)" class="st2 st4 st5">COMPLIANT</text>
</g>
<g id="Layer_2_1_">
</g>
</svg>
