<?xml version="1.0" encoding="utf-8"?>
<!-- Generator: Adobe Illustrator 24.0.1, SVG Export Plug-In . SVG Version: 6.00 Build 0)  -->
<svg version="1.1" xmlns="http://www.w3.org/2000/svg" xmlns:xlink="http://www.w3.org/1999/xlink" x="0px" y="0px"
	 viewBox="0 0 106 40" style="enable-background:new 0 0 106 40;" xml:space="preserve">
<style type="text/css">
	.st0{fill:none;}
</style>
<g id="GDPR_compliant_-_GDPR_Copy_13">
</g>
<g id="Layer_2">
	<g>
		<path d="M23.6,14.9c0-1.6,1.3-2.9,2.9-2.9s2.9,1.3,2.9,2.9v1.9h2.3v-1.9c0-2.9-2.3-5.2-5.2-5.2s-5.2,2.3-5.2,5.2v1.9h2.3
			C23.6,16.8,23.6,14.9,23.6,14.9z"/>
		<path d="M31.7,18H21.2c-1.1,0-2.1,0.9-2.1,2.1v6.4c0,1.1,0.9,2.1,2.1,2.1h10.5c1.1,0,2.1-0.9,2.1-2.1v-6.4
			C33.7,19,32.8,18,31.7,18z M29.9,20.8l-3,4.4c-0.4,0.7-0.7,0.8-0.9,0.8c-0.3,0-0.5-0.1-0.6-0.3L23.8,23c-0.2-0.3-0.1-0.8,0.3-1
			s0.8-0.1,1,0.3l0.9,1.6l2.6-3.8c0.2-0.3,0.6-0.5,1-0.3C29.9,20,30.1,20.4,29.9,20.8z"/>
	</g>
	<path d="M54.6,5.8c-0.4,0.3-0.5,0.7-0.5,1.2s0.2,0.9,0.7,1.2c0.4,0.3,1.5,0.6,3,1c1.6,0.4,2.8,1,3.7,1.8s1.3,1.9,1.3,3.4
		s-0.6,2.7-1.7,3.7c-1.1,0.9-2.6,1.4-4.4,1.4c-2.7,0-5-1-7.2-3l2.2-2.7c1.8,1.6,3.5,2.4,5,2.4c0.7,0,1.2-0.1,1.6-0.4
		c0.4-0.3,0.6-0.7,0.6-1.2s-0.2-0.9-0.6-1.2c-0.4-0.3-1.2-0.6-2.5-0.9c-2-0.5-3.4-1.1-4.3-1.8c-0.9-0.7-1.4-1.9-1.4-3.5
		s0.6-2.8,1.7-3.7c1.1-0.9,2.6-1.3,4.3-1.3c1.1,0,2.2,0.2,3.4,0.6c1.1,0.4,2.1,0.9,2.9,1.6L60.5,7c-1.5-1.1-3-1.7-4.5-1.7
		C55.4,5.4,54.9,5.5,54.6,5.8z"/>
	<path d="M69.9,5.8c-0.4,0.3-0.5,0.7-0.5,1.2s0.2,0.9,0.7,1.2c0.4,0.3,1.5,0.6,3,1c1.6,0.4,2.8,1,3.7,1.8c0.9,0.8,1.3,1.9,1.3,3.4
		s-0.6,2.7-1.7,3.7c-1.1,0.9-2.6,1.4-4.4,1.4c-2.7,0-5-1-7.2-3l2.2-2.7c1.8,1.6,3.5,2.4,5,2.4c0.7,0,1.2-0.1,1.6-0.4
		c0.4-0.3,0.6-0.7,0.6-1.2s-0.2-0.9-0.6-1.2c-0.4-0.3-1.2-0.6-2.5-0.9c-2-0.5-3.4-1.1-4.3-1.8c-0.9-0.7-1.4-1.9-1.4-3.5
		s0.6-2.8,1.7-3.7c1.1-0.9,2.6-1.3,4.3-1.3c1.1,0,2.2,0.2,3.4,0.6c1.1,0.4,2.1,0.9,2.9,1.6L75.9,7c-1.5-1.1-3-1.7-4.5-1.7
		C70.7,5.4,70.2,5.5,69.9,5.8z"/>
	<path d="M81.2,19.2V2.5h3.7v13.4H92v3.3C92,19.2,81.2,19.2,81.2,19.2z"/>
	<g>
		<path d="M51.6,28c-0.2,0.1-0.2,0.3-0.2,0.5c0,0.2,0.1,0.4,0.3,0.5c0.2,0.1,0.7,0.3,1.3,0.5c0.7,0.2,1.3,0.4,1.6,0.8
			c0.4,0.4,0.6,0.9,0.6,1.5c0,0.7-0.3,1.2-0.8,1.6c-0.5,0.4-1.2,0.6-1.9,0.6c-1.2,0-2.2-0.4-3.2-1.3l1-1.2c0.8,0.7,1.5,1.1,2.2,1.1
			c0.3,0,0.6-0.1,0.7-0.2c0.2-0.1,0.3-0.3,0.3-0.5c0-0.2-0.1-0.4-0.3-0.5c-0.2-0.1-0.6-0.3-1.1-0.4c-0.9-0.2-1.4-0.5-1.8-0.8
			s-0.6-0.9-0.6-1.5c0-0.7,0.3-1.3,0.8-1.6c0.5-0.4,1.2-0.6,1.8-0.6c0.5,0,1,0.1,1.4,0.3s0.9,0.4,1.3,0.7l-0.9,1.2
			c-0.7-0.5-1.3-0.8-1.9-0.8C52,27.8,51.8,27.9,51.6,28z"/>
		<path d="M61.9,26.5V28h-3.7v1.5h3.3v1.3h-3.3v1.5H62v1.4h-5.4v-7.3H61.9z"/>
		<path d="M66.8,32.4c0.8,0,1.4-0.3,1.9-1l1.1,1.1c-0.9,1-1.8,1.4-3,1.4s-2-0.4-2.8-1.1c-0.8-0.7-1.1-1.6-1.1-2.7s0.4-2,1.2-2.7
			c0.8-0.8,1.6-1.1,2.7-1.1c1.2,0,2.2,0.5,3,1.3l-1.1,1.2c-0.5-0.7-1.2-1-1.9-1c-0.6,0-1.2,0.2-1.5,0.6c-0.5,0.4-0.7,1-0.7,1.6
			c0,0.7,0.2,1.3,0.6,1.6C65.7,32.2,66.2,32.4,66.8,32.4z"/>
		<path d="M73,31.9c0.3,0.4,0.7,0.5,1.1,0.5c0.5,0,0.9-0.2,1.1-0.5c0.3-0.4,0.4-0.8,0.4-1.3v-4h1.6v4.1c0,1.1-0.3,1.8-0.9,2.4
			s-1.3,0.9-2.2,0.9c-0.9,0-1.6-0.3-2.2-0.9S71,31.7,71,30.7v-4.1h1.6v4C72.7,31.1,72.8,31.6,73,31.9z"/>
		<path d="M84.9,28.9c0,1.2-0.5,1.9-1.3,2.3l1.8,2.6h-2l-1.6-2.3h-1.2v2.3h-1.6v-7.3h2.8c1.2,0,1.9,0.2,2.4,0.6
			C84.7,27.5,84.9,28.1,84.9,28.9z M82.9,29.8c0.2-0.2,0.3-0.5,0.3-0.9c0-0.4-0.1-0.7-0.3-0.8C82.8,28,82.4,28,81.9,28h-1.3v2.2h1.2
			C82.4,30.1,82.8,30,82.9,29.8z"/>
		<path d="M91.8,26.5V28h-3.7v1.5h3.3v1.3h-3.3v1.5h3.8v1.4h-5.4v-7.3H91.8z"/>
	</g>
	<rect x="49.5" y="37" width="42.4" height="1.7"/>
	<rect x="49.5" y="22" width="42.4" height="1.7"/>
	<g>
		<path class="st0" d="M13.8,12.9l-0.9-0.6l0.3-0.5c0.3-0.5,0.4-1-0.3-1.4s-1.1,0-1.4,0.5l-0.6,1l2.5,1.5L13.8,12.9z M12.6,11.8
			l-0.2,0.3l-0.7-0.4l0.2-0.4c0.3-0.4,0.4-0.5,0.6-0.3C12.9,11.1,12.9,11.2,12.6,11.8z"/>
		<polygon class="st0" points="10.7,19 10.3,17.8 9.9,19 8.6,19 9.6,19.8 9.2,21 10.3,20.2 11.4,21 11,19.8 12,19 		"/>
		<path class="st0" d="M30.5,5.6c0.9,0.2,1.3-0.1,1.5-0.7l-0.6-0.2c-0.1,0.4-0.4,0.4-0.8,0.3C30.1,5,30,4.6,30.1,4
			c0.2-0.8,0.5-1,1-0.9s0.5,0.3,0.5,0.6l0.6,0.2c0.1-0.7-0.3-1.1-1-1.3c-0.9-0.2-1.4,0.1-1.7,1.1C29.4,4.9,29.7,5.4,30.5,5.6z"/>
		<polygon class="st0" points="22.2,3.2 22.8,5.6 23.4,5.4 22.8,3.1 23.7,2.9 23.5,2.4 21.2,3 21.4,3.5 		"/>
		<path class="st0" d="M19.7,7.1c0.6-0.3,1.1-0.9,0.5-2s-1.4-1-2-0.6c-0.6,0.3-1.1,0.9-0.5,2C18.3,7.4,19,7.4,19.7,7.1z M18.4,4.8
			c0.5-0.3,0.8-0.2,1.2,0.5c0.5,0.8,0.2,1.1-0.2,1.3c-0.5,0.3-0.8,0.3-1.2-0.5C17.8,5.3,17.9,5.1,18.4,4.8z"/>
		<polygon class="st0" points="34.2,7.1 35.4,5.1 36.2,5.6 36.4,5.1 34.4,3.8 34.1,4.3 34.9,4.8 33.7,6.9 		"/>
		<path class="st0" d="M16,9.8l-0.8-0.8l0.4-0.4l1.3,0.3l0.5-0.5L16,8.1c0.2-0.3,0.2-0.6-0.2-1c-0.6-0.6-0.9-0.3-1.4,0.2l-0.9,0.9
			l2.1,2.1L16,9.8z M14.3,8.1l0.4-0.4c0.4-0.4,0.5-0.4,0.7-0.2c0.3,0.3,0.2,0.4-0.2,0.8l-0.4,0.3L14.3,8.1z"/>
		<polygon class="st0" points="27.9,4.6 26.3,4.6 26.3,3.8 27.8,3.8 27.8,3.3 26.3,3.3 26.3,2.6 27.9,2.7 27.9,2.2 25.7,2.1 
			25.7,5.1 27.9,5.1 		"/>
		<polygon class="st0" points="44.5,19 43.2,19 42.8,17.8 42.4,19 41,19 42.1,19.8 41.7,21 42.8,20.2 43.8,21 43.4,19.8 		"/>
		<path class="st0" d="M41.8,10.8l-0.6-1l-2.5,1.5l0.6,1c0.5,0.8,1.1,0.8,1.9,0.3C42.1,12.1,42.3,11.6,41.8,10.8z M39.7,11.9
			l-0.3-0.5l1.7-1l0.2,0.4c0.4,0.6,0.3,0.8-0.4,1.2C40.3,12.4,40,12.4,39.7,11.9z"/>
		<polygon class="st0" points="37.7,10.1 38.1,9.6 36.9,8.6 37.4,7.9 38.5,8.9 38.8,8.6 37.8,7.6 38.2,7.1 39.4,8.2 39.7,7.9 
			38.1,6.3 36.1,8.4 		"/>
		<polygon class="st0" points="31.2,36.7 30.4,34 29.9,34.2 30.7,37.2 32.6,36.8 32.4,36.2 		"/>
		<circle class="st0" cx="26.5" cy="19.8" r="13.5"/>
		<path d="M12.6,10.9c-0.3-0.2-0.4-0.1-0.7,0.3l-0.2,0.4l0.7,0.4l0.2-0.3C12.9,11.2,12.9,11.1,12.6,10.9z"/>
		<path d="M19.4,6.6c0.4-0.2,0.6-0.4,0.2-1.3c-0.4-0.6-0.7-0.7-1.2-0.5c-0.5,0.3-0.6,0.6-0.2,1.3C18.6,6.9,18.9,6.9,19.4,6.6z"/>
		<path d="M15.4,7.4c-0.2-0.2-0.3-0.2-0.7,0.2l-0.4,0.4l0.5,0.6l0.4-0.4C15.6,7.9,15.7,7.8,15.4,7.4z"/>
		<path d="M26.5,0.8C16.1,0.8,7.6,9.4,7.6,19.8s8.5,18.9,18.9,18.9s18.9-8.5,18.9-18.9S37,0.8,26.5,0.8z M39.7,7.9l-0.4,0.4
			l-1.1-1.1l-0.4,0.5l1,1L38.4,9l-1-1l-0.5,0.5l1.2,1.1l-0.4,0.4l-1.6-1.6l2-2.1L39.7,7.9z M34.1,4.3l0.3-0.4l2.1,1.2l-0.3,0.4
			l-0.8-0.4l-1.2,2.1l-0.5-0.3l1.2-2.2L34.1,4.3z M29.6,3.8c0.3-1,0.8-1.4,1.7-1.1c0.7,0.2,1,0.6,1,1.3l-0.6-0.2
			c0-0.3,0-0.5-0.5-0.6s-0.8,0.1-1,0.9c-0.2,0.6-0.1,1,0.5,1.1c0.4,0.1,0.6,0,0.8-0.3l0.6,0.2c-0.2,0.5-0.6,0.9-1.5,0.7
			C29.7,5.4,29.4,4.9,29.6,3.8z M25.7,2.1h2.2v0.6h-1.6v0.6h1.4v0.5h-1.4v0.8h1.6v0.5h-2.2V2.1z M23.5,2.4l0.1,0.5l-0.9,0.2l0.6,2.3
			l-0.6,0.1l-0.6-2.3l-0.9,0.2l-0.1-0.5L23.5,2.4z M18.2,4.3c0.6-0.3,1.4-0.5,2,0.6s0.1,1.7-0.5,2c-0.7,0.4-1.4,0.4-2-0.7
			C17,5.1,17.6,4.6,18.2,4.3z M14.4,7.2c0.5-0.5,0.8-0.8,1.5-0.2c0.4,0.4,0.4,0.7,0.2,1l1.4,0.3l-0.6,0.5l-1.3-0.3l-0.4,0.4L16,9.8
			l-0.4,0.4l-2.1-2L14.4,7.2z M11.5,10.9c0.3-0.5,0.6-1,1.4-0.5c0.7,0.4,0.6,0.9,0.3,1.4l-0.3,0.4l0.9,0.5l-0.3,0.5L11,11.8
			L11.5,10.9z M11.4,21l-1.1-0.8L9.2,21l0.4-1.3L8.5,19h1.4l0.4-1.2l0.4,1.3H12l-1,0.7L11.4,21z M23.4,34.8
			c-0.1-0.1-0.3-0.2-0.6-0.3c-0.4-0.1-0.6,0-0.6,0.2c-0.1,0.2,0.1,0.4,0.4,0.7c0.5,0.4,0.7,0.7,0.5,1.1C23,37,22.5,37.2,21.7,37
			c-0.3-0.1-0.6-0.3-0.8-0.4l0.3-0.4c0.2,0.2,0.4,0.3,0.7,0.4c0.4,0.1,0.6,0,0.7-0.3c0.1-0.2-0.1-0.4-0.4-0.7
			c-0.5-0.3-0.7-0.7-0.6-1.1c0.1-0.5,0.7-0.8,1.3-0.6c0.3,0.1,0.6,0.2,0.7,0.4L23.4,34.8z M26.6,37.8c-0.3,0-0.7-0.1-0.9-0.2
			l0.1-0.5c0.2,0.1,0.5,0.2,0.8,0.2c0.4,0,0.6-0.2,0.6-0.4s-0.2-0.4-0.6-0.5c-0.5-0.2-0.9-0.5-0.9-0.9c0-0.5,0.4-0.9,1.1-0.9
			c0.3,0,0.6,0.1,0.8,0.1l-0.1,0.5C27.4,35,27.2,35,26.9,35c-0.4,0-0.5,0.2-0.5,0.4s0.2,0.4,0.6,0.5c0.6,0.2,0.8,0.5,0.8,0.9
			S27.4,37.8,26.6,37.8z M30.7,37.2l-0.8-3l0.6-0.2l0.7,2.6l1.3-0.4l0.1,0.5L30.7,37.2z M26.5,33.2C19,33.2,13,27.1,13,19.8
			c0-7.5,6.1-13.5,13.5-13.5C34,6.2,40,12.4,40,19.8C40.1,27.2,34,33.2,26.5,33.2z M39.3,12.2l-0.6-1l2.5-1.5l0.6,1.1
			c0.5,0.8,0.3,1.3-0.6,1.8C40.4,13.1,39.8,13.1,39.3,12.2z M42.8,20.2L41.7,21l0.4-1.3L41,19h1.3l0.4-1.3l0.4,1.3h1.3l-1,0.8
			l0.4,1.3L42.8,20.2z"/>
		<path d="M41.3,10.9l-0.2-0.4l-1.7,1l0.3,0.5c0.3,0.5,0.6,0.5,1.2,0.1C41.6,11.6,41.7,11.6,41.3,10.9z"/>
	</g>
</g>
</svg>
